<svg width="87" height="48" viewBox="0 0 87 48" fill="none" xmlns="http://www.w3.org/2000/svg">
<g clip-path="url(#clip0_256_577)">
<path d="M17.6774 23.3388C17.1802 23.4452 16.6521 23.7488 16.6521 23.7488L16.6516 24.1814C16.8911 24.2532 17.1556 24.5186 17.3238 24.7345L17.7037 24.6382L17.541 24.3746C17.541 24.3746 17.7769 24.2678 18.0696 24.2532C18.3986 24.2382 18.7031 24.3023 18.864 24.445L19.6907 24.2496L19.8007 24.0755C19.224 23.6229 18.4109 23.182 17.6774 23.3388Z" fill="#1C1C1E"/>
<path d="M16.0249 20.1425C15.7618 20.4061 15.1837 21.1237 15.4 21.8495C15.6409 21.615 16.1226 21.2482 16.4335 21.0796L16.0249 20.1425Z" fill="#1C1C1E"/>
<path d="M17.0116 20.9351C17.541 20.8142 18.8149 20.7665 19.1999 21.0315L19.4153 19.7807C19.0313 19.5894 18.4786 19.4676 17.9732 19.4676C17.4688 19.4676 16.9161 19.6117 16.6266 19.8276L17.0116 20.9351Z" fill="#1C1C1E"/>
<path d="M19.8261 21.2232C20.137 21.3205 21.1718 21.8254 21.7013 22.1658L22.3021 21.3205C22.0858 21.1028 20.6674 20.2389 20.2815 20.0457L19.8261 21.2232Z" fill="#1C1C1E"/>
<path fill-rule="evenodd" clip-rule="evenodd" d="M30.6324 18.2237C30.5329 18.0924 30.287 18.2005 30.287 18.2005L26.3558 19.658C26.0617 18.932 25.7085 18.2314 25.2996 17.5633L26.5726 14.0898C26.5726 14.0898 26.7316 13.7448 26.5839 13.659C26.4376 13.5721 26.1985 13.803 26.1985 13.803L23.8862 15.6995C22.9845 14.7338 21.926 13.9548 20.7098 13.4031C20.2501 13.1995 19.7764 13.0291 19.2923 12.8932L18.5747 10.1449C18.5747 10.1449 18.5129 9.86954 18.3284 9.86954C18.1443 9.86954 18.0943 10.1299 18.0943 10.1299L17.6344 12.5578C17.118 12.4917 16.598 12.4583 16.0774 12.4578C14.3526 12.4578 12.8206 12.785 11.4794 13.3867C10.9115 13.641 10.3693 13.9492 9.86015 14.307C9.80652 14.3447 9.75474 14.3844 9.70292 14.4242C9.6735 14.4467 9.64407 14.4693 9.61428 14.4915C9.13708 13.2631 8.76168 12.2605 8.69124 11.9592C8.9562 11.7188 9.51293 10.8426 9.64882 10.2513C9.83743 9.42415 9.77971 9.03285 9.58065 8.40704C9.52413 8.22748 9.44522 8.05248 9.37134 7.88863C9.25692 7.63486 9.15457 7.40786 9.16617 7.23222C9.18071 7.01634 9.29569 6.86182 9.39295 6.76229C9.34023 6.4587 9.14253 6.32645 8.90757 6.296C8.77121 6.27767 8.65382 6.29617 8.5374 6.31451C8.46912 6.32527 8.40117 6.33598 8.32993 6.33917C8.31857 6.31816 8.30449 6.30303 8.29058 6.28808C8.24551 6.23966 8.20211 6.19303 8.25767 5.95378C8.34694 5.56865 8.96321 5.34941 9.59073 5.12616C9.7363 5.07438 9.88251 5.02236 10.0229 4.96802C10.9659 4.60217 11.4926 3.92273 11.5244 2.83244C11.5472 2.03939 11.1054 1.45266 10.5514 1.18815C10.4401 1.5081 9.98059 1.93849 9.66109 2.11392C9.34659 2.28753 8.9103 2.35388 8.59489 2.28026C8.66397 1.69717 8.39492 1.20042 7.96908 1C7.83274 1.2486 7.32054 1.59127 6.55066 1.56764C6.2161 1.55697 6.01757 1.51653 5.81126 1.4745C5.54282 1.41981 5.2612 1.36243 4.64959 1.36449C3.10983 1.36722 1.83457 2.29616 1.67778 3.65959C1.57689 4.54536 1.91729 5.28843 2.17407 5.67337C1.98228 5.81743 1.53235 6.25055 1.45191 6.38053C1.34056 6.25055 1.03515 6.07785 0.667028 6.31827C0.746562 6.51188 0.761559 6.74729 0.698842 6.97317C0.68353 7.02686 0.639374 7.13086 0.580249 7.2701C0.393679 7.7095 0.0580632 8.49992 0.00940298 9.16874C-0.099671 10.6599 0.761559 11.6693 1.48417 11.9578C1.32465 12.1987 1.29148 12.4546 1.40419 12.6641C1.47827 12.8027 1.62779 12.9368 1.93365 12.9368C1.75731 13.129 1.69051 13.4194 1.80503 13.7058C1.93365 14.0262 2.30132 14.492 2.62263 14.492C2.60673 14.7642 2.73489 15.4046 2.79943 15.6618C2.78787 15.6834 2.77629 15.7044 2.76485 15.7252C2.66561 15.9055 2.5762 16.0679 2.59128 16.4126C2.60718 16.8135 2.86396 17.137 3.18391 17.2011C3.20368 17.2486 3.22224 17.2972 3.24065 17.3453C3.29714 17.4931 3.35216 17.6371 3.43615 17.7338C3.45863 17.7595 3.48062 17.7864 3.50336 17.8142C3.59411 17.925 3.69676 18.0503 3.88971 18.1783C4.12967 18.3387 4.40236 18.4677 4.72367 18.4677C4.78902 18.4677 4.85278 18.4684 4.91411 18.469C5.15344 18.4714 5.3558 18.4735 5.47083 18.4355C5.47492 18.4905 5.48733 18.8173 5.50464 19.2732C5.51621 19.5779 5.52998 19.9405 5.54491 20.3179C4.73867 22.5621 4.33646 25.164 4.33646 27.9549V27.9563C4.33691 32.9587 5.76351 37.4153 8.48718 40.2876C8.48718 40.2876 8.64398 40.4807 9.08118 40.7634C9.08118 40.7634 9.93377 39.3063 11.2304 37.6493C11.5734 37.2169 11.9473 36.81 12.3493 36.4318C12.9474 35.9104 13.5676 35.4148 14.2081 34.9466C15.8842 33.8049 17.8239 32.9351 19.6164 32.5651L19.341 32.7069C17.4531 33.6785 16.3075 34.268 14.4626 35.8496C13.2396 36.899 11.2899 38.7501 9.95741 41.2869C10.2346 41.5069 10.6082 41.7328 11.0486 41.7773C11.1113 41.7037 11.2319 41.5148 11.4059 41.2421C12.0138 40.2895 13.2744 38.3141 15.0039 36.6536C19.5041 32.4397 24.8051 31.4653 27.5806 31.5185C27.7365 30.3759 27.8169 29.1847 27.8169 27.9549C27.8169 25.9402 27.6069 24.0269 27.1879 22.2735L30.5015 18.5859L30.5047 18.5824C30.5321 18.5529 30.7236 18.3466 30.6324 18.2237ZM4.82551 9.6778C5.9158 9.68007 6.43254 10.1332 6.68795 10.3736C6.71977 10.005 6.66159 9.68007 6.31892 9.40239C6.03396 9.17106 5.53313 8.96654 4.76416 8.96654C4.25106 8.96654 3.73523 9.11698 3.41437 9.38875C3.12032 9.63871 3.07215 9.92094 3.13578 10.3381C3.23167 10.0337 3.92747 9.67416 4.82551 9.6778ZM2.87264 3.95777C2.84855 4.37362 2.95899 4.80764 3.15214 5.06442C3.26167 5.21031 3.52117 5.49163 3.71296 5.48072C3.81653 5.47417 3.91769 5.39509 4.03828 5.30081C4.23571 5.14645 4.48524 4.95136 4.88278 4.96716C5.10081 4.97572 5.27941 5.14089 5.45073 5.29933C5.60687 5.44373 5.75696 5.58253 5.92534 5.59207C6.0703 5.60125 6.17891 5.5285 6.29029 5.45389C6.38844 5.38814 6.48874 5.32095 6.61796 5.30711C6.82664 5.285 6.91473 5.37529 7.03235 5.49586C7.04768 5.51157 7.0635 5.52779 7.08017 5.54435C7.17651 5.32075 7.31513 5.1685 7.6728 4.90399C7.85114 4.77155 8.20661 4.64196 8.60672 4.49611C9.17729 4.28811 9.83864 4.04701 10.2065 3.71736C10.5196 3.43649 10.5905 2.91748 10.4915 2.56799C10.2542 2.90112 9.59659 3.25288 8.95624 3.2847C8.63493 3.3006 7.86505 3.15881 7.59236 3.01474C7.72916 2.78023 7.77415 2.51345 7.66144 2.25667C7.45284 2.41756 6.55116 2.50482 6.19758 2.50482C6.05595 2.50482 5.8603 2.48166 5.64231 2.45585C5.31747 2.4174 4.94301 2.37307 4.62373 2.39074C3.453 2.45255 2.91127 3.28424 2.87264 3.95777ZM6.35641 15.2241C6.33869 14.8629 6.32729 14.6305 6.32476 14.5875L6.74152 14.2807V14.2025C6.43747 14.1862 6.08389 14.0744 5.973 13.8967L5.86029 11.5093C5.44263 11.477 5.01315 11.3448 4.85317 11.1853C4.82823 11.1602 4.80397 11.1344 4.78106 11.1077C4.62064 10.9204 4.52589 10.6848 4.72274 10.3058C4.93043 10.4513 5.53988 10.6272 6.06889 10.6272C6.13219 10.6272 6.23555 10.7077 6.3374 10.7871C6.41544 10.8479 6.49261 10.9081 6.55018 10.9308C6.64298 10.9676 6.77415 11.0344 6.88991 11.0933C6.96519 11.1317 7.03401 11.1667 7.08146 11.188C7.1775 11.2295 7.2402 11.4291 7.27614 11.5435L7.28037 11.5569C7.28408 11.5687 7.28746 11.5792 7.29052 11.5884C7.32233 11.6847 11.1831 21.705 11.2476 21.8168C11.2638 21.8453 11.2904 21.9755 11.3214 22.1558C11.4125 22.6843 11.5404 23.6447 11.5512 23.7406C11.5685 23.8687 12.1452 25.2144 12.257 25.3435C11.7444 25.3281 10.9041 25.6217 10.2146 26.2966C9.54108 26.9542 8.94527 28.3999 8.80983 29.0666L8.80949 29.0642C8.80793 29.0526 8.80426 29.0358 8.79886 29.013C8.6365 28.3315 6.86741 22.934 6.78924 22.7948C6.72194 22.6736 6.45038 17.1392 6.35641 15.2241ZM11.6948 32.3811C11.5271 33.9213 11.1522 35.2574 10.5886 36.2118C10.3157 36.6749 9.67015 37.4966 9.21616 38.0745L9.21525 38.0756L9.21455 38.0765C9.06686 38.2645 8.93955 38.4266 8.8521 38.5419C9.23795 37.7734 9.53563 35.9164 9.51063 34.473C9.50619 34.2115 9.48084 33.862 9.45199 33.4642C9.37743 32.4364 9.27947 31.086 9.45837 30.0978C9.72515 28.6271 10.1433 27.8004 11.1277 26.8942C11.6294 26.432 12.6574 25.8416 14.1245 26.2402L15.3116 28.4726C14.6762 28.3512 13.8368 28.4603 13.2769 28.8907C12.2243 29.6992 11.8698 30.7895 11.6948 32.3811ZM5.98912 16.559C5.79734 16.4467 5.26787 16.189 4.85112 16.2063C4.41891 16.2236 4.05397 16.3108 3.71311 16.5267C3.56904 16.4299 3.52405 16.2377 3.61676 16.0132C3.70857 15.7896 3.84173 15.7573 3.84173 15.7573L3.71948 13.6562C3.71948 13.6562 4.30984 13.2363 4.46936 13.1886C4.62933 13.1409 4.70205 13.0154 4.70205 12.8555C4.96337 13.0332 5.34922 13.4267 5.55601 13.7217C5.74916 13.9944 5.86142 14.298 5.87732 14.6352C5.89323 14.9715 5.89641 15.3728 5.82869 15.7896L5.85249 15.8098C5.97515 15.9141 6.08601 16.0083 6.10138 16.1736C6.11367 16.3109 6.07848 16.3798 6.03208 16.4707C6.01843 16.4975 6.0038 16.5261 5.98912 16.559ZM29.3346 19.1322L25.1339 23.1002C25.1107 22.6908 24.6353 21.585 24.3472 21.3441L29.3346 19.1322ZM11.4524 14.837L15.6735 18.6664C15.2659 18.8954 14.6546 19.5122 14.4869 20.0162L11.4524 14.837ZM13.9224 22.4222C13.7784 22.6471 13.7266 22.7821 13.6784 23.0539C13.6356 23.2947 13.6583 23.4408 13.6869 23.6255L13.6944 23.6741L13.6988 23.7033L12.4031 22.8098C12.4142 22.5979 12.3788 22.2926 12.3495 22.0397C12.3368 21.9304 12.3252 21.8308 12.3191 21.7527C12.3171 21.7282 12.3099 21.6905 12.3033 21.6556L12.3004 21.6405L13.9224 22.4222ZM12.5856 32.2952C12.4793 32.9151 12.0998 34.7671 11.8112 35.417C13.0228 34.2381 16.1946 32.7324 17.4526 32.3238C17.1885 32.3397 16.7941 32.2375 16.6741 31.948L15.3311 29.2134C15.0271 29.1248 14.2626 29.1747 13.7972 29.5588C12.9204 30.2816 12.7463 31.3302 12.6163 32.1125C12.606 32.175 12.5958 32.2364 12.5856 32.2952ZM23.2149 27.5732C23.0953 27.3473 23.0181 27.0237 23.234 26.6865C23.4498 26.3502 23.9848 25.8848 24.297 25.6962L24.3742 27.3355C24.3742 27.3355 25.4463 29.3674 25.9158 30.4186C25.619 30.4119 25.3328 30.4143 25.0598 30.4165C24.9283 30.4176 24.7993 30.4186 24.6742 30.4186L24.6319 30.3428C24.437 29.9938 24.2706 29.6957 24.0616 29.1402C24.0616 29.1402 23.3512 27.8277 23.2149 27.5732ZM19.6218 18.1887C19.2378 17.996 18.0398 17.8865 17.5108 17.9819L18.4056 11.303L19.6218 18.1887ZM8.60288 9.77684C8.57015 8.81472 7.42669 7.6449 4.89299 7.59627C2.68061 7.554 1.16357 8.44614 1.22811 9.81002C1.20611 9.74815 1.18272 9.69151 1.16004 9.63657C1.08291 9.44978 1.01388 9.28262 1.03496 8.99605C1.05677 8.71605 1.18629 8.46574 1.30818 8.23019C1.36909 8.11247 1.42809 7.99844 1.4708 7.88622C1.57215 7.62081 1.51579 7.16497 1.40399 7.05272C1.46888 7.03843 1.56364 7.06666 1.66688 7.09742C1.79357 7.13516 1.93302 7.1767 2.04571 7.14815C2.30158 7.08407 2.37929 6.99863 2.47519 6.78912C2.57154 6.58097 2.70333 6.411 2.92148 6.39554C2.99851 6.3897 3.10694 6.4167 3.23033 6.44743C3.42362 6.49556 3.65364 6.55284 3.85725 6.50735C4.06769 6.46026 4.21739 6.33393 4.35644 6.21658C4.50326 6.09268 4.63821 5.97879 4.82028 5.97879C5.00721 5.97879 5.1763 6.1097 5.3442 6.23969C5.49224 6.3543 5.63936 6.4682 5.79695 6.49098C5.94915 6.51252 6.14024 6.44249 6.33512 6.37108C6.572 6.28427 6.81447 6.19541 6.99949 6.26647C7.18272 6.33636 7.21379 6.52016 7.2453 6.70656C7.27178 6.8632 7.29857 7.02167 7.41624 7.11589C7.61113 7.27143 8.01549 7.15415 8.24749 7.08685C8.30222 7.07097 8.34737 7.05788 8.37791 7.05181C8.36625 7.10616 8.35365 7.15673 8.34149 7.20557C8.30341 7.35844 8.26951 7.49454 8.28156 7.67671C8.28993 7.79337 8.38507 8.02283 8.48237 8.25748C8.58596 8.5073 8.69199 8.763 8.69831 8.8947L8.69952 8.91898C8.715 9.22933 8.72824 9.49467 8.60288 9.77684ZM2.57154 13.0759C2.75105 12.775 3.12009 12.486 3.29597 12.4537C3.08737 12.4382 2.75105 12.4537 2.46246 12.5028C2.36611 12.311 2.3343 11.9724 2.38202 11.7529L2.70333 11.7661L2.52609 11.3321C2.7506 11.1398 3.60001 10.7071 4.08176 10.6917C4.12584 10.9112 4.12948 11.0921 4.11402 11.1721C4.09766 11.2525 4.06494 11.3489 3.9695 11.3957L3.54957 11.6106C3.80705 11.5974 4.06512 11.6007 4.32217 11.6206C4.46533 11.6361 4.53032 11.6684 4.53032 11.8133C4.53032 11.957 4.49169 12.1024 4.41216 12.2137C4.34866 12.3016 4.19152 12.3095 4.06486 12.3158C4.02836 12.3176 3.99433 12.3194 3.96587 12.3228C4.02995 12.4669 4.04858 12.535 4.04858 12.6778C4.04858 12.8236 4.00086 12.8877 3.8727 12.9527L3.86558 12.9562C3.73864 13.0188 3.58163 13.0962 3.42549 13.2081C3.31188 13.289 3.08237 13.6367 3.03601 13.8453C2.8315 13.7217 2.6238 13.2699 2.57154 13.0759ZM21.8608 20.2466C23.1929 21.2555 23.9741 22.1867 24.0332 22.4981C24.0362 22.514 24.0395 22.5308 24.0429 22.5481C24.068 22.6751 24.099 22.8323 24.0587 22.933C23.9141 22.7385 22.8798 21.7532 22.8798 21.7532L22.2303 22.5753L23.4569 23.6529C23.1697 23.8219 22.8788 23.9537 22.3985 23.8933C21.8295 23.8219 20.571 23.0284 20.5474 22.404C20.0338 22.1854 18.8645 21.8336 17.9014 21.85C17.2743 21.8586 16.5785 22.0177 16.3626 22.0899C16.1932 22.1459 16.0595 22.0768 15.9291 22.0093C15.8922 21.9902 15.8556 21.9713 15.8186 21.9554L15.7427 22.0027L16.2185 22.7385C16.3044 22.7814 16.4346 22.7393 16.6057 22.6841C16.7226 22.6463 16.8586 22.6024 17.0125 22.5753C17.6619 22.4581 18.5432 22.5549 19.2008 22.933C19.6584 23.1952 20.9314 24.2537 21.1959 24.5191C21.4604 24.7827 21.8699 24.8541 22.0626 24.6859C22.2544 24.5191 22.5284 24.5223 22.5044 24.7382C22.4993 24.7835 22.4907 24.8298 22.4822 24.8754C22.45 25.0483 22.4194 25.2125 22.5916 25.2876C22.742 25.3553 22.8428 25.2675 22.9448 25.1786C22.9784 25.1493 23.0122 25.1198 23.0479 25.0958C23.1929 24.9981 23.336 24.9754 23.5042 25.0708C23.3842 25.3117 23.072 25.6966 22.807 25.9134C22.5425 26.1293 22.1344 26.3225 21.8699 26.2261L21.7018 26.6347L22.9038 29.3997C23.0234 29.6405 23.1037 29.8146 23.1713 29.9612C23.2822 30.2017 23.3589 30.3679 23.5187 30.6332C21.1632 31.019 18.994 31.7902 18.2677 32.0888L17.7869 30.4386L18.8872 28.8952C18.8872 28.8952 17.7424 29.3093 17.3906 29.3397C17.3874 29.3399 17.3832 29.3404 17.3781 29.341C17.3749 29.3413 17.3715 29.3418 17.3677 29.3422C17.2415 29.3574 16.7584 29.4155 16.6489 28.9134C16.6489 28.9134 16.5557 28.5526 16.5557 28.4071C16.5557 28.2694 16.6753 28.1017 16.7952 28.1254C17.0134 28.169 17.1325 28.0781 17.1325 28.0781L17.3629 27.7691C17.276 27.7582 17.1829 27.7406 17.0982 27.7246C16.9955 27.7052 16.905 27.6882 16.853 27.6882C16.7944 27.6882 16.7068 27.7205 16.6094 27.7564C16.5472 27.7794 16.4809 27.8038 16.4158 27.8222C16.319 27.7504 16.1694 27.6209 16.2181 27.4532H17.4924L17.516 27.3078C17.516 27.3078 16.8598 27.0137 16.6053 27.0024C16.3512 26.991 16.2417 27.1401 16.2417 27.1401V26.8983L16.9629 26.2929L16.2181 25.9848L15.8095 26.0575L16.074 24.3746L15.9336 24.0851L15.2059 24.5186L15.1832 23.5633C15.2059 23.3875 15.5441 23.0511 15.8181 22.8934L15.7704 22.3154C15.69 22.3639 15.6072 22.4069 15.5256 22.4494C15.3127 22.56 15.1069 22.667 14.9673 22.8584C14.7951 23.097 14.5824 23.4593 14.6065 23.7724C14.3893 23.5633 14.3438 23.2234 14.3893 22.9866C14.4542 22.658 14.5824 22.4258 14.9187 22.1372C14.8224 21.8645 14.7992 21.3682 14.8955 20.9097C15.0551 20.1511 15.929 18.6982 18.045 18.6859C19.2989 18.6791 20.8228 19.4572 21.8608 20.2466ZM23.1548 20.1571C22.8046 19.8721 21.9608 19.1854 21.5372 19.035L25.8084 14.8097L23.2602 20.2425C23.2338 20.2214 23.1978 20.1921 23.1548 20.1571Z" fill="#1C1C1E"/>
<path d="M38.8793 23.292C37.6254 23.292 37.2759 23.0307 37.2759 22.1949L37.2764 15.3287C37.2764 14.4397 37.555 14.2311 38.5657 13.9689V13.6726H33.7392V13.9689C34.8022 14.2316 35.0281 14.492 35.0281 15.3982V21.9154C35.0281 23.0129 34.9067 23.2756 33.7392 23.5715V23.8678H41.5275L41.8229 21.2182H41.5275C40.7077 22.9093 40.1332 23.292 38.8793 23.292Z" fill="#1C1C1E"/>
<path d="M46.1627 23.5715C45.431 23.4842 45.0997 23.1175 45.0997 22.4553L45.1002 17.0539H44.8039L41.9452 17.297V17.5933C42.9037 17.7856 43.1309 18.0119 43.1309 18.8136V22.3167C43.1309 23.1525 42.9205 23.3965 42.0325 23.5715V23.8678H46.1627V23.5715Z" fill="#1C1C1E"/>
<path d="M44.5575 13.0446C44.4201 12.9878 44.2727 12.9587 44.124 12.959C43.4959 12.959 42.9737 13.4644 42.9737 14.0911C42.9737 14.7192 43.4959 15.2423 44.124 15.2423C44.7511 15.2423 45.2561 14.7192 45.2561 14.0911C45.2564 13.9424 45.2273 13.795 45.1705 13.6576C45.1137 13.5201 45.0303 13.3951 44.9251 13.29C44.82 13.1848 44.695 13.1014 44.5575 13.0446Z" fill="#1C1C1E"/>
<path fill-rule="evenodd" clip-rule="evenodd" d="M49.0891 12.959H49.3863L49.3868 18.2387C50.1694 17.4188 50.9724 17.0357 51.9137 17.0357C53.6907 17.0357 55.0486 18.5159 55.0486 20.4329C55.0486 22.4544 53.8306 24.1273 50.6239 24.1273C49.3868 24.1273 48.4106 24.0582 47.4175 23.8674V14.4225C47.4175 13.8648 47.034 13.5517 46.4241 13.4472V13.1508L49.0891 12.959ZM50.9193 17.9246C50.3962 17.9246 50.0485 18.0987 49.3863 18.7091V22.5603C49.3863 23.3084 49.6467 23.6574 50.4325 23.6574C51.895 23.6574 52.8703 22.7862 52.8703 20.6433C52.8703 19.0399 52.0855 17.9246 50.9193 17.9246Z" fill="#1C1C1E"/>
<path fill-rule="evenodd" clip-rule="evenodd" d="M59.4743 17.0361C61.3399 17.0361 62.6811 18.1873 62.9242 19.9984L57.9404 19.998C57.8364 22.1581 59.0557 23.2747 60.2755 23.2747C61.234 23.2747 62.0003 22.8034 62.6284 21.8449H62.9238C62.3307 23.2565 60.9895 24.1273 59.4043 24.1273C57.3483 24.1273 55.8153 22.6294 55.8153 20.6256C55.8153 18.5864 57.4014 17.0361 59.4743 17.0361ZM59.3352 17.5074C58.5326 17.5074 57.9932 18.3432 57.9409 19.598H60.7982C60.7287 18.3787 60.136 17.5074 59.3352 17.5074Z" fill="#1C1C1E"/>
<path d="M67.7498 18.7268C68.2029 18.7268 68.6561 19.0231 69.2319 19.5803L69.6659 17.5942C69.3528 17.2293 68.9338 17.0371 68.4997 17.0371C67.6799 17.0371 66.9654 17.6988 66.3205 19.1285H66.2864V17.0371H65.9892L63.1165 17.2975V17.5938C63.9523 17.6633 64.3167 18.0469 64.3167 18.8831V22.3508C64.3167 23.1002 64.0922 23.3615 63.2196 23.5715V23.8678H67.4008V23.5715C66.4428 23.3783 66.2869 23.1357 66.2869 22.3508V19.6671C66.7914 18.9704 67.1581 18.7268 67.7498 18.7268Z" fill="#1C1C1E"/>
<path d="M80.3288 17.5933V17.297L83.0643 17.2975V17.5938C82.2285 17.8215 82.0194 18.0642 81.4791 19.284L78.1691 26.8464C77.472 28.4489 76.7221 29.0247 75.3628 29.0247C75.1891 29.0247 75.0505 29.0247 74.8051 28.9897L75.206 27.0037C75.6241 27.1432 75.8331 27.1605 76.0954 27.1605C77.3147 27.1605 78.0105 26.2893 78.8127 24.1282L76.4085 19.0586C75.9904 18.1701 75.7109 17.8215 74.7529 17.8215H72.9913V21.6013C72.9913 22.6657 73.2694 23.2924 74.1938 23.2924C74.5397 23.2924 74.8374 23.1361 75.151 22.7689L75.3596 22.9598C74.8724 23.7796 74.227 24.1282 73.2508 24.1282C72.0146 24.1282 71.0207 23.5365 71.0207 22.0385V17.8215H69.8363V17.4902C70.6553 16.9852 71.7351 15.939 72.6595 14.7542H72.9909V17.2975H78.8122V17.5938C78.0623 17.6983 78.0623 18.0819 78.4645 18.919L79.8575 21.7931L80.7651 19.6853C81.3568 18.2905 81.1659 17.7669 80.3288 17.5933Z" fill="#1C1C1E"/>
<path d="M48.1611 37.2721C47.1685 37.0812 46.7317 36.5763 46.6099 35.6883L45.686 29.3283C45.5469 28.3867 45.791 27.8658 46.8372 27.6727V27.3764H43.3859L40.6854 34.1026L38.0195 27.3764H34.3437V27.6727C34.8658 27.6909 35.4235 27.9517 35.8243 28.3698L34.8131 35.0274C34.5695 36.5931 34.0996 37.2226 33.0025 37.2721V37.5684H36.6956V37.2721C35.5453 37.1858 35.319 36.385 35.4939 35.1997L36.382 29.2052H36.4161L39.6919 37.5684H40.0587L43.3686 29.2052H43.4041L44.2398 35.0274C44.4321 36.3513 44.2398 36.9944 43.1246 37.2721V37.5684H48.1611V37.2721Z" fill="#1C1C1E"/>
<path d="M47.932 31.2971C48.7169 31.4366 48.9609 31.698 48.9609 32.4301L48.9605 35.8273C48.9605 37.0821 49.7804 37.8306 51.1383 37.8306C52.2013 37.8306 53.0212 37.3435 53.7525 36.2295H53.7875V37.8306L56.8029 37.5693V37.273C55.9308 37.0471 55.7558 36.8381 55.7558 35.9673V30.739H55.4595L52.759 31.0013V31.2976C53.438 31.4198 53.7879 31.7325 53.7879 32.2729V35.5478C53.2121 36.455 52.8112 36.7331 52.1504 36.7331C51.4346 36.7331 50.9293 36.3677 50.9293 35.5828V30.7386H50.6334L47.932 31.0008V31.2971Z" fill="#1C1C1E"/>
<path d="M57.1329 31.523H58.3181V35.7387C58.3181 37.2389 59.3102 37.8297 60.5469 37.8297C61.524 37.8297 62.1689 37.4825 62.6561 36.6636L62.447 36.4713C62.1339 36.8367 61.8367 36.994 61.489 36.994C60.5651 36.994 60.2874 36.3668 60.2874 35.3038V31.5225H62.447V31.0003H60.2874V28.4566H59.9547C59.0326 29.641 57.9514 30.6872 57.1329 31.1921V31.523Z" fill="#1C1C1E"/>
<path d="M62.6902 31.2971C63.475 31.4366 63.7191 31.698 63.7191 32.4301L63.7182 35.8273C63.7182 37.0821 64.5372 37.8306 65.8951 37.8306C66.9591 37.8306 67.778 37.3435 68.5102 36.2295H68.5443V37.8306L71.5592 37.5693V37.273C70.6885 37.0471 70.5135 36.8381 70.5135 35.9673V30.739H70.2172L67.5167 31.0013V31.2976C68.1957 31.4198 68.5447 31.7325 68.5447 32.2729V35.5478C67.9703 36.455 67.5694 36.7331 66.9063 36.7331C66.1928 36.7331 65.6888 36.3677 65.6888 35.5828V30.7386H65.3916L62.6902 31.0008V31.2971Z" fill="#1C1C1E"/>
<path fill-rule="evenodd" clip-rule="evenodd" d="M75.1482 30.7381C76.5598 30.7381 78.0405 31.383 78.0405 33.1955V36.2977C78.0405 36.9076 78.1464 37.1676 78.4418 37.1676C78.7209 37.1676 78.8945 36.9599 78.9649 36.559H79.2431C79.174 37.3775 78.5991 37.8297 77.6397 37.8297C76.8393 37.8297 76.3853 37.5684 76.0558 36.9076L75.8977 37.0462C75.2355 37.6393 74.6256 37.8302 73.8253 37.8302C72.7441 37.8302 71.856 37.0644 71.856 36.1064C71.856 34.7479 73.3814 34.3462 74.8164 33.9683C75.2595 33.8517 75.6939 33.7373 76.0722 33.5977C76.0722 32.4301 75.6191 31.8725 74.4338 31.8725C73.5449 31.8725 72.8827 32.237 72.4659 32.9696H72.2037C72.5523 31.558 73.6153 30.7381 75.1482 30.7381ZM74.8178 37.1167C75.2187 37.1167 75.6013 36.8908 76.0558 36.4377V33.9453C74.4156 34.6425 73.9116 35.0443 73.9116 35.9323C73.9116 36.6454 74.2775 37.1167 74.8178 37.1167Z" fill="#1C1C1E"/>
<path d="M79.3649 27.15C80.3052 27.2018 80.6029 27.5336 80.6029 28.4571L80.6024 35.9668C80.6024 36.804 80.3238 37.1171 79.3644 37.2726V37.5689H83.7374V37.2726C82.7634 37.0467 82.5712 36.8376 82.5712 35.9668V26.6615H82.2749L79.3649 26.8546V27.15Z" fill="#1C1C1E"/>
<path d="M84.4922 36.3186H83.9801V36.1373H85.2085V36.3186H84.6968V37.6507H84.4922V36.3186Z" fill="#1C1C1E"/>
<path d="M86.8033 36.7567V37.6502H87.0005V36.1368H86.7096L86.2792 37.4162H86.2761L85.8434 36.1368H85.5503V37.6502H85.7489V36.7567C85.7489 36.7407 85.7483 36.7055 85.7475 36.6606C85.7462 36.5809 85.7443 36.4704 85.7443 36.3809H85.7489L86.1738 37.6502H86.377L86.8033 36.3786H86.8064C86.8064 36.4695 86.8051 36.5809 86.8042 36.6609C86.8037 36.7057 86.8033 36.7407 86.8033 36.7567Z" fill="#1C1C1E"/>
</g>
<defs>
<clipPath id="clip0_256_577">
<rect width="87" height="48" fill="white"/>
</clipPath>
</defs>
</svg>
