<svg width="108" height="48" viewBox="0 0 108 48" fill="none" xmlns="http://www.w3.org/2000/svg">
<path d="M0 10H11.8082L0 38.24V10Z" fill="#1C1C1E"/>
<path d="M31.9091 10H20.1163L31.9091 38.24V10Z" fill="#1C1C1E"/>
<path d="M15.9622 20.4083L23.4779 38.24H18.547L16.3007 32.5628H10.8005L15.9622 20.4083Z" fill="#1C1C1E"/>
<path fill-rule="evenodd" clip-rule="evenodd" d="M52.5657 31.9514L51.1733 27.9588H45.4576L44.1422 31.9052C44.0884 32.0514 44.0191 32.0975 43.873 32.0975H41.4806C41.3421 32.0975 41.2882 32.0283 41.3113 31.859L46.2423 17.8352C46.3423 17.5967 46.4115 17.3506 46.4577 16.5428C46.4577 16.4428 46.5115 16.3736 46.6039 16.3736H49.9271C50.0502 16.3736 50.0732 16.3967 50.0963 16.5197L55.6273 31.8821C55.6504 32.0283 55.6273 32.0975 55.4812 32.0975H52.8041C52.681 32.0975 52.6118 32.0514 52.5657 31.9514ZM46.5182 24.4505C46.4157 24.7587 46.3154 25.0603 46.2192 25.351H50.4117C50.2622 24.8842 50.0592 24.2666 49.8352 23.5847L49.8337 23.5803C49.2973 21.9481 48.64 19.9477 48.3039 18.766H48.2809C47.9474 20.1532 47.1861 22.4424 46.5182 24.4505Z" fill="#1C1C1E"/>
<path fill-rule="evenodd" clip-rule="evenodd" d="M62.7378 32.336C64.1763 32.336 65.7072 32.0744 67.2611 31.4052C67.3842 31.359 67.4072 31.3052 67.4072 31.1898C67.3611 30.759 67.3073 30.1359 67.3073 29.6589V15.1966C67.3073 15.1043 67.3072 15.0581 67.1919 15.0581H64.5841C64.4841 15.0581 64.4379 15.1043 64.4379 15.2274V20.1276C64.0302 20.0815 63.7455 20.0584 63.4071 20.0584C59.1992 20.0584 56.6145 22.8355 56.6145 26.3049C56.6145 30.3282 59.2684 32.336 62.7378 32.336ZM64.4379 29.6589C64.0071 29.7974 63.5302 29.8512 63.0455 29.8512C61.1377 29.8512 59.5761 28.7743 59.5761 26.1587C59.5761 23.8432 61.1839 22.4739 63.3148 22.4739C63.7455 22.4739 64.1225 22.5201 64.4379 22.6432V29.6589Z" fill="#1C1C1E"/>
<path fill-rule="evenodd" clip-rule="evenodd" d="M69.911 26.2126C69.911 22.8124 72.1342 20.0584 75.7267 20.0584C79.4114 20.0584 81.4192 22.8586 81.4192 26.1357C81.4192 29.8512 79.0499 32.336 75.6728 32.336C71.6803 32.336 69.911 29.2512 69.911 26.2126ZM78.4729 26.2126C78.4729 24.2202 77.6114 22.4739 75.5805 22.4739C73.9727 22.4739 72.8265 23.8894 72.8265 26.1587C72.8265 28.3665 73.9035 29.8974 75.7267 29.8974C77.2036 29.8974 78.4729 28.6743 78.4729 26.2126Z" fill="#1C1C1E"/>
<path fill-rule="evenodd" clip-rule="evenodd" d="M84.1153 15.0581C84.0153 15.0581 83.9461 15.1043 83.9461 15.2274V31.5975C83.9461 31.6667 84.0153 31.7898 84.1153 31.8129C85.2615 32.1667 86.4616 32.336 87.7001 32.336C91.2464 32.336 94.6927 30.1359 94.6927 25.7049C94.6927 22.497 92.4926 20.0584 89.0463 20.0584C88.254 20.0584 87.5155 20.1815 86.8693 20.3969L86.8385 15.2504C86.8385 15.0812 86.7924 15.0581 86.6231 15.0581H84.1153ZM91.7464 25.9972C91.7464 28.6512 89.931 29.8974 87.9693 29.8974C87.5616 29.8974 87.2001 29.8743 86.8693 29.7743V22.7893C87.2462 22.6432 87.7001 22.5201 88.5386 22.5201C90.431 22.5201 91.7464 23.7201 91.7464 25.9972Z" fill="#1C1C1E"/>
<path fill-rule="evenodd" clip-rule="evenodd" d="M106.887 26.7588C106.556 26.8357 105.594 26.8588 104.425 26.8588H99.5633C99.6325 28.5281 100.74 29.8743 103.179 29.8743C104.256 29.8743 105.24 29.682 106.148 29.2974C106.217 29.2512 106.287 29.2743 106.287 29.3897V31.3821C106.287 31.5206 106.24 31.5975 106.148 31.6436C105.24 32.0744 104.187 32.336 102.556 32.336C98.2017 32.336 96.6478 29.2743 96.6478 26.328C96.6478 23.0047 98.6555 20.0584 102.271 20.0584C105.81 20.0584 107.179 22.8355 107.179 25.1125C107.179 25.7818 107.148 26.328 107.079 26.5895C107.056 26.6895 107.01 26.7357 106.887 26.7588ZM102.148 22.3585C100.494 22.3585 99.7556 23.6278 99.5633 24.7971H103.133C104.04 24.7971 104.348 24.7971 104.448 24.774V24.5817C104.448 23.8894 103.971 22.3585 102.148 22.3585Z" fill="#1C1C1E"/>
</svg>
